<?xml version="1.0" encoding="UTF-8" standalone="no"?>
<svg
   xmlns:dc="http://purl.org/dc/elements/1.1/"
   xmlns:cc="http://creativecommons.org/ns#"
   xmlns:rdf="http://www.w3.org/1999/02/22-rdf-syntax-ns#"
   xmlns:svg="http://www.w3.org/2000/svg"
   xmlns="http://www.w3.org/2000/svg"
   width="16"
   height="16"
   viewBox="0 0 16 16"
   version="1.1"
   id="svg4">
  <metadata
     id="metadata10">
    <rdf:RDF>
      <cc:Work
         rdf:about="">
        <dc:format>image/svg+xml</dc:format>
        <dc:type
           rdf:resource="http://purl.org/dc/dcmitype/StillImage" />
        <dc:title></dc:title>
      </cc:Work>
    </rdf:RDF>
  </metadata>
  <defs
     id="defs8" />
  <path
     d="M 9,0 C 6.58,0 4.46,1.72 4,4 1.8,4 0,5.8 0,8 0,8.74 0.22,9.42 0.56,10 H 1 l 3,-3 3,3 h 2 l 3,-3 3,3 h 0.82 C 15.94,9.68 16,9.36 16,9 16,7.7 15.16,6.42 14,6 V 5 C 14,2.24 11.76,0 9,0 Z"
     id="path2"
     style="stroke-width:2" />
  <path
     d="m 4,10 -4,4 h 3.2 v 1.200001 c 0,1.066665 1.6,1.066665 1.6,0 V 14 H 8 Z"
     id="path883-3"
     style="stroke-width:1.60000002" />
  <path
     d="m 12,10 -4,4 h 3.2 v 1.200001 c 0,1.066665 1.6,1.066665 1.6,0 V 14 H 16 Z"
     id="path883-3-3"
     style="stroke-width:1.60000002" />
</svg>
